<svg width="857px" height="313px" viewBox="0 0 857 313" version="1.1" xmlns="http://www.w3.org/2000/svg" xmlns:xlink="http://www.w3.org/1999/xlink">
	<g id="Page-1" stroke="none" stroke-width="1" fill="none" fill-rule="evenodd">
		<g id="wreckeys-logo" transform="translate(0.900000, 0.200000)" fill="#FFFFFF" fill-rule="nonzero">
			<path d="M73.1,311.5 L56.2,311.5 L74.9,122 L16.9,311.5 L0,311.5 L27.5,17.3 L47,17.3 L31.5,203.2 L85.5,17.3 L103.9,17.3 L88.6,200.2 L141,17.3 L160.1,17.3 L73.1,311.5 Z M188.6,278.1 L200.8,211.2 C200.866667,210.733333 200.966667,210.266667 201.1,209.8 C201.233333,209.066667 201.233333,208.333333 201.1,207.6 C201.166667,204.666667 200.3,202.066667 198.5,199.8 C196.7,197.4 193.733333,196.2 189.6,196.2 L168.3,196.2 L147.3,311.5 C147.366667,311.233333 145.933333,311.1 143,311.1 C140.266667,311.1 137.2,311.1 133.8,311.1 C132.8,311.1 131.8,311.1 130.8,311.1 C129.866667,311.1 128.9,311.1 127.9,311.1 L148.9,195.8 L132,195.8 L135.3,177.8 L152.2,177.8 L181.4,17.3 L222.9,17.3 C231.966667,17.3 239.1,20.4666667 244.3,26.8 C249.566667,32.9333333 251.366667,40.5333333 249.7,49.6 L228.5,166.1 C227.766667,169.966667 226.333333,173.733333 224.2,177.4 C222.333333,181.133333 219.933333,184.333333 217,187 C219,189.466667 220.266667,192.533333 220.8,196.2 C221.6,199.866667 221.433333,204.866667 220.3,211.2 L208.1,278.1 C207.433333,281.766667 207.866667,284.7 209.4,286.9 C211.266667,288.833333 213.366667,290.166667 215.7,290.9 C217.5,291.633333 219.233333,292.133333 220.9,292.4 C222.9,292.4 224.266667,292.4 225,292.4 C225.2,292.4 225.3,292.4 225.3,292.4 C225.566667,292.4 225.7,292.4 225.7,292.4 L222.1,312.2 C221.9,312 221.566667,311.9 221.1,311.9 C220.833333,311.9 220.466667,311.9 220,311.9 C210.8,311.166667 202.6,308.966667 195.4,305.3 C188.266667,301.633333 186,292.566667 188.6,278.1 L188.6,278.1 Z M230.6,49.6 C231.266667,45.9333333 230.5,42.7666667 228.3,40.1 C226.3,37.3666667 223.466667,36 219.8,36 L197.1,36 L171.3,177.8 L192.6,177.8 C196.733333,177.8 200.333333,176.833333 203.4,174.9 C206.666667,172.9 208.666667,169.966667 209.4,166.1 L230.6,49.6 Z M246.8,311.4 L267.8,196.1 L249.8,196.1 L253.2,177.7 L270.8,177.7 L300,17.2 L369.1,17.2 L365.7,36 L316.8,36 L291,177.7 L341.3,177.7 L338,196.1 L287.7,196.1 L270,293.4 L320.3,293.4 L317,311.4 L246.8,311.4 Z M362.9,311.4 L362.8,311.8 C353.6,311.333333 345.7,309 339.1,304.8 C332.766667,300.666667 330.8,292 333.2,278.8 L374.9,49.6 C376.833333,38.8 381.966667,30.7 390.3,25.3 C398.633333,19.9 407.2,17.2 416,17.2 C416.266667,17.2 416.4,17.2 416.4,17.2 C416.666667,17.2 416.9,17.2 417.1,17.2 C425.9,17.4666667 433.4,20.8 439.6,27.2 C445.8,33.2666667 448.1,40.7333333 446.5,49.6 L440.1,84.8 L421.7,84.8 L428.2,49.6 C428.866667,45.6666667 427.6,42.3333333 424.4,39.6 C421.466667,36.9333333 417.566667,35.6 412.7,35.6 C407.3,35.6 403.333333,36.5666667 400.8,38.5 C398.466667,40.5 396.733333,42.6 395.6,44.8 C395.4,45.8 395.133333,46.6666667 394.8,47.4 C394.666667,48.1333333 394.533333,48.8666667 394.4,49.6 L352.6,279.1 C351.733333,283.766667 352.566667,287.333333 355.1,289.8 C357.566667,292.2 360.466667,293.666667 363.8,294.2 C364.266667,294.2 364.633333,294.2 364.9,294.2 C365.366667,294.2 365.866667,294.2 366.4,294.2 C371.066667,294.2 375.466667,292.833333 379.6,290.1 C384,287.433333 386.666667,283.533333 387.6,278.4 L393.8,244.2 L412.9,244.2 L406.6,278.8 C405,287.6 399.833333,295.3 391.1,301.9 C382.566667,308.233333 373.533333,311.4 364,311.4 C363.733333,311.4 363.466667,311.4 363.2,311.4 C363.2,311.4 363.1,311.4 362.9,311.4 L362.9,311.4 Z M483.3,311.4 L501.6,211.2 C501.666667,210.666667 501.6,210.3 501.4,210.1 C501.533333,209.566667 501.633333,209.066667 501.7,208.6 C501.3,205.4 499.366667,202.6 495.9,200.2 C492.7,197.466667 488.533333,196.1 483.4,196.1 L469.4,196.1 L448.4,311.4 L428.6,311.4 L449.6,196.1 L432,196.1 L435.3,177.7 L452.9,177.7 L482.2,17.2 L501.6,17.2 L472.4,177.7 L478.7,177.7 L535.8,17.2 L554.9,17.2 L498,178.5 C505.533333,180.233333 511.566667,184.133333 516.1,190.2 C520.566667,196.333333 522.1,203.333333 520.7,211.2 L502.4,311.4 L483.3,311.4 Z M528.2,311.4 L549.1,196.1 L531.1,196.1 L534.5,177.7 L552.1,177.7 L581.3,17.2 L650.4,17.2 L647,36 L598.1,36 L572.3,177.7 L622.6,177.7 L619.3,196.1 L569,196.1 L551.3,293.4 L601.6,293.4 L598.3,311.4 L528.2,311.4 Z M646,311.8 L646,312.2 C635.266667,311.933333 626.933333,308.5 621,301.9 C615.4,295.3 613.4,287.466667 615,278.4 L621.4,243.1 L642,243.1 L635.7,278 C635.566667,278.533333 635.466667,279.033333 635.4,279.5 C635.333333,279.766667 635.4,280.133333 635.6,280.6 C635.466667,284 636.466667,287.166667 638.6,290.1 C641,293.033333 644.666667,294.5 649.6,294.5 C655.2,294.5 659.766667,292.933333 663.3,289.8 C666.833333,286.6 669,282.8 669.8,278.4 L685.4,192.4 C682.8,193.4 679.966667,194.133333 676.9,194.6 C673.9,194.866667 670.933333,195.133333 668,195.4 C667.733333,195.4 667.366667,195.4 666.9,195.4 C666.633333,195.4 666.266667,195.4 665.8,195.4 C664.333333,195.4 662.866667,195.4 661.4,195.4 C660.2,195.133333 658.9,194.766667 657.5,194.3 C651.833333,193.033333 646.866667,190.1 642.6,185.5 C638.533333,180.833333 637.266667,174.333333 638.8,166 L665.9,17.2 L686.1,17.2 L659.1,165.6 C658.366667,169.533333 659.133333,172.6 661.4,174.8 C664,176.733333 667,177.7 670.4,177.7 C675.333333,177.7 679.566667,176.733333 683.1,174.8 C686.9,172.6 689.166667,169.533333 689.9,165.6 L716.9,17.2 L737.5,17.2 L689.8,279.5 C688,289.3 682.766667,297.133333 674.1,303 C665.7,308.866667 656.333333,311.8 646,311.8 L646,311.8 Z M751.8,49.6 L741.9,43.7 C742.3,42.7 742.7,41.7 743.1,40.7 C743.766667,39.7666667 744.466667,38.6666667 745.2,37.4 C745.266667,37.2 745.333333,36.8333333 745.4,36.3 C745.733333,35.8333333 746.033333,35.4666667 746.3,35.2 C747.166667,33.2666667 747.966667,31.5666667 748.7,30.1 C749.5,28.3666667 750.166667,26.7666667 750.7,25.3 C750.1,24.5666667 749.533333,23.7 749,22.7 C748.733333,21.5 748.566667,20.4 748.5,19.4 C748.166667,18.4666667 747.933333,17.6333333 747.8,16.9 C747.933333,16.1666667 748.066667,15.4333333 748.2,14.7 C748.933333,10.7666667 751.033333,7.33333333 754.5,4.4 C757.966667,1.46666667 761.666667,0 765.6,0 C769.533333,0 772.7,1.46666667 775.1,4.4 C777.766667,7.33333333 778.733333,10.7666667 778,14.7 C777.466667,17.3666667 775.6,20.9 772.4,25.3 C769.4,29.5 762.533333,37.6 751.8,49.6 L751.8,49.6 Z M830.6,83 L836.6,49.9 C837.333333,45.9666667 836.233333,42.5333333 833.3,39.6 C830.433333,36.6666667 826.533333,35.2 821.6,35.2 C821.133333,35.2 820.5,35.3333333 819.7,35.6 C819.233333,35.6 818.766667,35.6 818.3,35.6 C814.5,36.0666667 810.8,37.5333333 807.2,40 C803.6,42.2 801.433333,45.4 800.7,49.6 L779.5,166 C778.433333,171.6 779.266667,175.633333 782,178.1 C784.8,180.3 788.133333,181.666667 792,182.2 C792.466667,182.2 792.833333,182.2 793.1,182.2 C793.566667,182.2 794.033333,182.2 794.5,182.2 C795.233333,182.2 795.866667,182.2 796.4,182.2 C797.133333,182.2 797.733333,182.2 798.2,182.2 C805.666667,182.666667 812.066667,185.1 817.4,189.5 C823,193.9 824.866667,201.233333 823,211.5 L810.7,278.8 C809.1,287.8 804.166667,295.366667 795.9,301.5 C787.7,307.633333 778.433333,310.933333 768.1,311.4 C757.033333,311.4 748.766667,308.233333 743.3,301.9 C738.166667,295.3 736.2,288.066667 737.4,280.2 C737.4,280 737.4,279.9 737.4,279.9 C737.466667,279.633333 737.533333,279.366667 737.6,279.1 L743.9,244.2 L763,244.2 L756.7,278.8 C755.966667,282.933333 756.9,286.6 759.5,289.8 C762.433333,292.733333 766.333333,294.2 771.2,294.2 C776.066667,294.2 780.5,292.733333 784.5,289.8 C788.7,286.866667 791.233333,283.066667 792.1,278.4 L804.2,211.5 C805,207.366667 804.066667,204.433333 801.4,202.7 C798.8,201.033333 795.8,200.066667 792.4,199.8 C792.133333,199.8 791.9,199.8 791.7,199.8 C791.7,199.8 791.566667,199.8 791.3,199.8 C789.366667,199.8 787.2,199.666667 784.8,199.4 C782.6,199.133333 780.366667,198.633333 778.1,197.9 C772.233333,196.233333 767.3,193.066667 763.3,188.4 C759.233333,183.733333 758.133333,176.266667 760,166 L781.2,49.6 C782.733333,41 786.666667,34.1333333 793,29 C799.6,23.8666667 806.233333,20.4333333 812.9,18.7 C814.7,18.2333333 816.466667,17.8666667 818.2,17.6 C820,17.3333333 821.733333,17.2 823.4,17.2 C823.4,17.2 823.4,17.2 823.4,17.2 C823.666667,17.2 823.933333,17.2 824.2,17.2 C824.4,17.2 824.5,17.2 824.5,17.2 C824.766667,17.2 824.9,17.2 824.9,17.2 C835.166667,17.4666667 843.166667,20.5333333 848.9,26.4 C854.966667,32.2666667 857.133333,40 855.4,49.6 L849.3,83 L830.6,83 Z" id="Shape"></path>
		</g>
	</g>
</svg>
