<?xml version="1.0" encoding="UTF-8"?>
<svg width="859px" height="479px" viewBox="0 0 859 479" version="1.1" xmlns="http://www.w3.org/2000/svg" xmlns:xlink="http://www.w3.org/1999/xlink">
	<g id="wreckeys-logo" transform="translate(0.000000, 0.200000)" fill="#C03319" fill-rule="nonzero">
		<path d="M74,311.5 L57.1,311.5 L75.8,122 L17.8,311.5 L0.9,311.5 L28.4,17.3 L47.9,17.3 L32.4,203.2 L86.4,17.3 L104.8,17.3 L89.5,200.2 L141.9,17.3 L161,17.3 L74,311.5 Z M189.5,278.1 L201.7,211.2 C201.766667,210.733333 201.866667,210.266667 202,209.8 C202.133333,209.066667 202.133333,208.333333 202,207.6 C202.066667,204.666667 201.2,202.066667 199.4,199.8 C197.6,197.4 194.633333,196.2 190.5,196.2 L169.2,196.2 L148.2,311.5 C148.266667,311.233333 146.833333,311.1 143.9,311.1 C141.166667,311.1 138.1,311.1 134.7,311.1 C133.7,311.1 132.7,311.1 131.7,311.1 C130.766667,311.1 129.8,311.1 128.8,311.1 L149.8,195.8 L132.9,195.8 L136.2,177.8 L153.1,177.8 L182.3,17.3 L223.8,17.3 C232.866667,17.3 240,20.4666667 245.2,26.8 C250.466667,32.9333333 252.266667,40.5333333 250.6,49.6 L229.4,166.1 C228.666667,169.966667 227.233333,173.733333 225.1,177.4 C223.233333,181.133333 220.833333,184.333333 217.9,187 C219.9,189.466667 221.166667,192.533333 221.7,196.2 C222.5,199.866667 222.333333,204.866667 221.2,211.2 L209,278.1 C208.333333,281.766667 208.766667,284.7 210.3,286.9 C212.166667,288.833333 214.266667,290.166667 216.6,290.9 C218.4,291.633333 220.133333,292.133333 221.8,292.4 C223.8,292.4 225.166667,292.4 225.9,292.4 C226.1,292.4 226.2,292.4 226.2,292.4 C226.466667,292.4 226.6,292.4 226.6,292.4 L223,312.2 C222.8,312 222.466667,311.9 222,311.9 C221.733333,311.9 221.366667,311.9 220.9,311.9 C211.7,311.166667 203.5,308.966667 196.3,305.3 C189.166667,301.633333 186.9,292.566667 189.5,278.1 L189.5,278.1 Z M231.5,49.6 C232.166667,45.9333333 231.4,42.7666667 229.2,40.1 C227.2,37.3666667 224.366667,36 220.7,36 L198,36 L172.2,177.8 L193.5,177.8 C197.633333,177.8 201.233333,176.833333 204.3,174.9 C207.566667,172.9 209.566667,169.966667 210.3,166.1 L231.5,49.6 Z M247.7,311.4 L268.7,196.1 L250.7,196.1 L254.1,177.7 L271.7,177.7 L300.9,17.2 L370,17.2 L366.6,36 L317.7,36 L291.9,177.7 L342.2,177.7 L338.9,196.1 L288.6,196.1 L270.9,293.4 L321.2,293.4 L317.9,311.4 L247.7,311.4 Z M363.8,311.4 L363.7,311.8 C354.5,311.333333 346.6,309 340,304.8 C333.666667,300.666667 331.7,292 334.1,278.8 L375.8,49.6 C377.733333,38.8 382.866667,30.7 391.2,25.3 C399.533333,19.9 408.1,17.2 416.9,17.2 C417.166667,17.2 417.3,17.2 417.3,17.2 C417.566667,17.2 417.8,17.2 418,17.2 C426.8,17.4666667 434.3,20.8 440.5,27.2 C446.7,33.2666667 449,40.7333333 447.4,49.6 L441,84.8 L422.6,84.8 L429.1,49.6 C429.766667,45.6666667 428.5,42.3333333 425.3,39.6 C422.366667,36.9333333 418.466667,35.6 413.6,35.6 C408.2,35.6 404.233333,36.5666667 401.7,38.5 C399.366667,40.5 397.633333,42.6 396.5,44.8 C396.3,45.8 396.033333,46.6666667 395.7,47.4 C395.566667,48.1333333 395.433333,48.8666667 395.3,49.6 L353.5,279.1 C352.633333,283.766667 353.466667,287.333333 356,289.8 C358.466667,292.2 361.366667,293.666667 364.7,294.2 C365.166667,294.2 365.533333,294.2 365.8,294.2 C366.266667,294.2 366.766667,294.2 367.3,294.2 C371.966667,294.2 376.366667,292.833333 380.5,290.1 C384.9,287.433333 387.566667,283.533333 388.5,278.4 L394.7,244.2 L413.8,244.2 L407.5,278.8 C405.9,287.6 400.733333,295.3 392,301.9 C383.466667,308.233333 374.433333,311.4 364.9,311.4 C364.633333,311.4 364.366667,311.4 364.1,311.4 C364.1,311.4 364,311.4 363.8,311.4 L363.8,311.4 Z M484.2,311.4 L502.5,211.2 C502.566667,210.666667 502.5,210.3 502.3,210.1 C502.433333,209.566667 502.533333,209.066667 502.6,208.6 C502.2,205.4 500.266667,202.6 496.8,200.2 C493.6,197.466667 489.433333,196.1 484.3,196.1 L470.3,196.1 L449.3,311.4 L429.5,311.4 L450.5,196.1 L432.9,196.1 L436.2,177.7 L453.8,177.7 L483.1,17.2 L502.5,17.2 L473.3,177.7 L479.6,177.7 L536.7,17.2 L555.8,17.2 L498.9,178.5 C506.433333,180.233333 512.466667,184.133333 517,190.2 C521.466667,196.333333 523,203.333333 521.6,211.2 L503.3,311.4 L484.2,311.4 Z M529.1,311.4 L550,196.1 L532,196.1 L535.4,177.7 L553,177.7 L582.2,17.2 L651.3,17.2 L647.9,36 L599,36 L573.2,177.7 L623.5,177.7 L620.2,196.1 L569.9,196.1 L552.2,293.4 L602.5,293.4 L599.2,311.4 L529.1,311.4 Z M646.9,311.8 L646.9,312.2 C636.166667,311.933333 627.833333,308.5 621.9,301.9 C616.3,295.3 614.3,287.466667 615.9,278.4 L622.3,243.1 L642.9,243.1 L636.6,278 C636.466667,278.533333 636.366667,279.033333 636.3,279.5 C636.233333,279.766667 636.3,280.133333 636.5,280.6 C636.366667,284 637.366667,287.166667 639.5,290.1 C641.9,293.033333 645.566667,294.5 650.5,294.5 C656.1,294.5 660.666667,292.933333 664.2,289.8 C667.733333,286.6 669.9,282.8 670.7,278.4 L686.3,192.4 C683.7,193.4 680.866667,194.133333 677.8,194.6 C674.8,194.866667 671.833333,195.133333 668.9,195.4 C668.633333,195.4 668.266667,195.4 667.8,195.4 C667.533333,195.4 667.166667,195.4 666.7,195.4 C665.233333,195.4 663.766667,195.4 662.3,195.4 C661.1,195.133333 659.8,194.766667 658.4,194.3 C652.733333,193.033333 647.766667,190.1 643.5,185.5 C639.433333,180.833333 638.166667,174.333333 639.7,166 L666.8,17.2 L687,17.2 L660,165.6 C659.266667,169.533333 660.033333,172.6 662.3,174.8 C664.9,176.733333 667.9,177.7 671.3,177.7 C676.233333,177.7 680.466667,176.733333 684,174.8 C687.8,172.6 690.066667,169.533333 690.8,165.6 L717.8,17.2 L738.4,17.2 L690.7,279.5 C688.9,289.3 683.666667,297.133333 675,303 C666.6,308.866667 657.233333,311.8 646.9,311.8 L646.9,311.8 Z M752.7,49.6 L742.8,43.7 C743.2,42.7 743.6,41.7 744,40.7 C744.666667,39.7666667 745.366667,38.6666667 746.1,37.4 C746.166667,37.2 746.233333,36.8333333 746.3,36.3 C746.633333,35.8333333 746.933333,35.4666667 747.2,35.2 C748.066667,33.2666667 748.866667,31.5666667 749.6,30.1 C750.4,28.3666667 751.066667,26.7666667 751.6,25.3 C751,24.5666667 750.433333,23.7 749.9,22.7 C749.633333,21.5 749.466667,20.4 749.4,19.4 C749.066667,18.4666667 748.833333,17.6333333 748.7,16.9 C748.833333,16.1666667 748.966667,15.4333333 749.1,14.7 C749.833333,10.7666667 751.933333,7.33333333 755.4,4.4 C758.866667,1.46666667 762.566667,0 766.5,0 C770.433333,0 773.6,1.46666667 776,4.4 C778.666667,7.33333333 779.633333,10.7666667 778.9,14.7 C778.366667,17.3666667 776.5,20.9 773.3,25.3 C770.3,29.5 763.433333,37.6 752.7,49.6 L752.7,49.6 Z M831.5,83 L837.5,49.9 C838.233333,45.9666667 837.133333,42.5333333 834.2,39.6 C831.333333,36.6666667 827.433333,35.2 822.5,35.2 C822.033333,35.2 821.4,35.3333333 820.6,35.6 C820.133333,35.6 819.666667,35.6 819.2,35.6 C815.4,36.0666667 811.7,37.5333333 808.1,40 C804.5,42.2 802.333333,45.4 801.6,49.6 L780.4,166 C779.333333,171.6 780.166667,175.633333 782.9,178.1 C785.7,180.3 789.033333,181.666667 792.9,182.2 C793.366667,182.2 793.733333,182.2 794,182.2 C794.466667,182.2 794.933333,182.2 795.4,182.2 C796.133333,182.2 796.766667,182.2 797.3,182.2 C798.033333,182.2 798.633333,182.2 799.1,182.2 C806.566667,182.666667 812.966667,185.1 818.3,189.5 C823.9,193.9 825.766667,201.233333 823.9,211.5 L811.6,278.8 C810,287.8 805.066667,295.366667 796.8,301.5 C788.6,307.633333 779.333333,310.933333 769,311.4 C757.933333,311.4 749.666667,308.233333 744.2,301.9 C739.066667,295.3 737.1,288.066667 738.3,280.2 C738.3,280 738.3,279.9 738.3,279.9 C738.366667,279.633333 738.433333,279.366667 738.5,279.1 L744.8,244.2 L763.9,244.2 L757.6,278.8 C756.866667,282.933333 757.8,286.6 760.4,289.8 C763.333333,292.733333 767.233333,294.2 772.1,294.2 C776.966667,294.2 781.4,292.733333 785.4,289.8 C789.6,286.866667 792.133333,283.066667 793,278.4 L805.1,211.5 C805.9,207.366667 804.966667,204.433333 802.3,202.7 C799.7,201.033333 796.7,200.066667 793.3,199.8 C793.033333,199.8 792.8,199.8 792.6,199.8 C792.6,199.8 792.466667,199.8 792.2,199.8 C790.266667,199.8 788.1,199.666667 785.7,199.4 C783.5,199.133333 781.266667,198.633333 779,197.9 C773.133333,196.233333 768.2,193.066667 764.2,188.4 C760.133333,183.733333 759.033333,176.266667 760.9,166 L782.1,49.6 C783.633333,41 787.566667,34.1333333 793.9,29 C800.5,23.8666667 807.133333,20.4333333 813.8,18.7 C815.6,18.2333333 817.366667,17.8666667 819.1,17.6 C820.9,17.3333333 822.633333,17.2 824.3,17.2 C824.3,17.2 824.3,17.2 824.3,17.2 C824.566667,17.2 824.833333,17.2 825.1,17.2 C825.3,17.2 825.4,17.2 825.4,17.2 C825.666667,17.2 825.8,17.2 825.8,17.2 C836.066667,17.4666667 844.066667,20.5333333 849.8,26.4 C855.866667,32.2666667 858.033333,40 856.3,49.6 L850.2,83 L831.5,83 Z" id="Shape"></path>
		<path d="M859,349.8 L859,478.8 L0,478.8 L0,349.8 L859,349.8 Z M370.9,375.1 C366.433333,375.1 362.366667,375.733333 358.7,377 C355.033333,378.266667 351.766667,380.066667 348.9,382.4 C346.033333,384.666667 343.533333,387.333333 341.4,390.4 C339.266667,393.4 337.5,396.7 336.1,400.3 C334.7,403.833333 333.666667,407.5 333,411.3 C332.333333,415.166667 332,419 332,422.8 C332,428.466667 333.033333,433.4 335.1,437.6 C337.166667,441.8 340.2,445.066667 344.2,447.4 C348.266667,449.666667 353.3,450.8 359.3,450.8 C363.766667,450.8 367.833333,450.2 371.5,449 C375.1,447.733333 378.333333,445.966667 381.2,443.7 C384.066667,441.433333 386.533333,438.766667 388.6,435.7 C390.733333,432.7 392.466667,429.4 393.8,425.8 C395.2,422.2 396.2,418.433333 396.8,414.5 C397.466667,410.566667 397.8,406.6 397.8,402.6 C397.8,394.333333 395.533333,387.7 391,382.7 C386.533333,377.633333 379.833333,375.1 370.9,375.1 Z M70.5,375.1 C65.0333333,375.1 60.2,376.033333 56,377.9 C51.7333333,379.7 48.0333333,382.2 44.9,385.4 C41.7666667,388.533333 39.2,392.133333 37.2,396.2 C35.2,400.2 33.7,404.4 32.7,408.8 C31.7,413.266667 31.2,417.666667 31.2,422 C31.2,427.866667 32.2,432.966667 34.2,437.3 C36.2666667,441.566667 39.3,444.9 43.3,447.3 C47.3,449.633333 52.2666667,450.8 58.2,450.8 C62.6666667,450.8 66.6,450.366667 70,449.5 C73.4666667,448.566667 76.2333333,447.7 78.3,446.9 L78.3,433.9 C75.4333333,435.033333 72.5666667,435.966667 69.7,436.7 C66.9,437.366667 64.1,437.7 61.3,437.7 C56.3,437.7 52.6333333,436.366667 50.3,433.7 C47.9666667,430.9 46.8,426.733333 46.8,421.2 C46.8,418.266667 47.1,415.266667 47.7,412.2 C48.3,409.133333 49.2,406.166667 50.4,403.3 C51.6,400.433333 53.1333333,397.866667 55,395.6 C56.8666667,393.266667 59.1,391.433333 61.7,390.1 C64.3,388.766667 67.2333333,388.1 70.5,388.1 C73.6333333,388.1 76.4333333,388.566667 78.9,389.5 C81.4333333,390.433333 83.8666667,391.566667 86.2,392.9 L92.2,380.4 C88.9333333,378.6 85.6666667,377.266667 82.4,376.4 C79.1333333,375.533333 75.1666667,375.1 70.5,375.1 Z M135.4,376.2 L120.1,376.2 L110.2,422.7 C109.933333,423.833333 109.733333,425.1 109.6,426.5 C109.533333,427.833333 109.5,429.033333 109.5,430.1 C109.5,434.3 110.366667,437.933333 112.1,441 C113.833333,444.133333 116.433333,446.533333 119.9,448.2 C123.433333,449.933333 127.733333,450.8 132.8,450.8 C139.266667,450.8 144.633333,449.633333 148.9,447.3 C153.1,445.033333 156.466667,441.866667 159,437.8 C161.466667,433.666667 163.266667,429 164.4,423.8 L174.5,376.2 L159.1,376.2 L149.4,422.4 C148.666667,425.8 147.7,428.633333 146.5,430.9 C145.3,433.166667 143.7,434.866667 141.7,436 C139.766667,437.133333 137.3,437.7 134.3,437.7 C131.1,437.7 128.733333,436.933333 127.2,435.4 C125.6,433.866667 124.8,431.666667 124.8,428.8 C124.8,427.933333 124.9,426.966667 125.1,425.9 C125.233333,424.766667 125.433333,423.633333 125.7,422.5 L135.4,376.2 Z M223.8,375.2 C219.933333,375.2 216.433333,375.766667 213.3,376.9 C210.233333,377.966667 207.6,379.5 205.4,381.5 C203.2,383.5 201.5,385.866667 200.3,388.6 C199.1,391.266667 198.5,394.266667 198.5,397.6 C198.5,400.933333 199.133333,403.866667 200.4,406.4 C201.6,408.866667 203.166667,411.033333 205.1,412.9 C207.033333,414.766667 209.033333,416.466667 211.1,418 C212.833333,419.266667 214.366667,420.433333 215.7,421.5 C217.033333,422.633333 218.066667,423.833333 218.8,425.1 C219.533333,426.433333 219.9,428.033333 219.9,429.9 C219.9,431.233333 219.6,432.4 219,433.4 C218.4,434.466667 217.566667,435.333333 216.5,436 C215.433333,436.666667 214.166667,437.166667 212.7,437.5 C211.233333,437.766667 209.666667,437.9 208,437.9 C204.866667,437.9 201.833333,437.433333 198.9,436.5 C195.966667,435.566667 192.966667,434.233333 189.9,432.5 L189.9,446.3 C192.033333,447.7 194.633333,448.8 197.7,449.6 C200.766667,450.4 204.166667,450.8 207.9,450.8 C211.633333,450.8 215.166667,450.333333 218.5,449.4 C221.9,448.466667 224.833333,447.066667 227.3,445.2 C229.833333,443.333333 231.833333,440.966667 233.3,438.1 C234.766667,435.3 235.5,431.966667 235.5,428.1 C235.5,425.166667 235.033333,422.533333 234.1,420.2 C233.233333,417.8 231.9,415.6 230.1,413.6 C228.3,411.533333 226.066667,409.6 223.4,407.8 C221.466667,406.533333 219.8,405.4 218.4,404.4 C217.066667,403.333333 216.033333,402.166667 215.3,400.9 C214.566667,399.633333 214.2,398.133333 214.2,396.4 C214.2,395.133333 214.433333,394 214.9,393 C215.433333,392 216.1,391.133333 216.9,390.4 C217.766667,389.666667 218.766667,389.133333 219.9,388.8 C221.1,388.4 222.4,388.2 223.8,388.2 C226.066667,388.2 228.366667,388.5 230.7,389.1 C233.1,389.7 235.6,390.633333 238.2,391.9 L243.7,380.2 C240.633333,378.533333 237.5,377.266667 234.3,376.4 C231.033333,375.6 227.533333,375.2 223.8,375.2 Z M318.8,376.2 L268,376.2 L265.2,389.2 L283,389.2 L270.2,449.8 L285.5,449.8 L298.3,389.2 L316.1,389.2 L318.8,376.2 Z M453.9,376.3 L433.5,376.3 L418,449.8 L431.8,449.8 L439,415.6 C439.6,412.8 440.166667,409.933333 440.7,407 C441.233333,404.066667 441.7,401.333333 442.1,398.8 C442.5,396.266667 442.766667,394.266667 442.9,392.8 L443.3,392.8 L446.4,449.8 L460.5,449.8 L489.2,392.8 L489.6,392.8 C489.066667,394.8 488.466667,397.1 487.8,399.7 C487.133333,402.3 486.466667,404.933333 485.8,407.6 C485.2,410.2 484.633333,412.666667 484.1,415 L476.8,449.8 L490.9,449.8 L506.5,376.3 L485.2,376.3 L457.6,431.3 L457.1,431.3 L453.9,376.3 Z M599.9,376.3 L579.6,376.3 L564,449.8 L577.9,449.8 L585.1,415.6 C585.7,412.8 586.233333,409.933333 586.7,407 C587.233333,404.066667 587.7,401.333333 588.1,398.8 C588.5,396.266667 588.8,394.266667 589,392.8 L589.4,392.8 L592.5,449.8 L606.6,449.8 L635.2,392.8 L635.7,392.8 C635.166667,394.8 634.566667,397.1 633.9,399.7 C633.233333,402.3 632.566667,404.933333 631.9,407.6 C631.3,410.2 630.733333,412.666667 630.2,415 L622.9,449.8 L637,449.8 L652.5,376.3 L631.3,376.3 L603.6,431.3 L603.2,431.3 L599.9,376.3 Z M700,376.3 L684.6,376.3 L668.9,449.8 L684.3,449.8 L700,376.3 Z M751.8,376.2 L731.8,376.2 L716.3,449.8 L739,449.8 C744.266667,449.8 749.066667,449.1 753.4,447.7 C757.733333,446.3 761.533333,444.3 764.8,441.7 C768.2,439.1 771,435.933333 773.2,432.2 C775.533333,428.466667 777.266667,424.233333 778.4,419.5 C779.6,414.766667 780.2,409.6 780.2,404 C780.2,395 777.7,388.1 772.7,383.3 C767.766667,378.566667 760.8,376.2 751.8,376.2 Z M831.3,376.2 L815.9,376.2 L800.2,449.8 L815.6,449.8 L831.3,376.2 Z M369.6,388.1 C373.733333,388.1 376.866667,389.466667 379,392.2 C381.066667,394.866667 382.1,398.466667 382.1,403 C382.1,406.533333 381.833333,409.833333 381.3,412.9 C380.833333,416.033333 380.133333,418.9 379.2,421.5 C378.2,424.033333 377.033333,426.3 375.7,428.3 C374.433333,430.366667 373,432.1 371.4,433.5 C369.733333,434.833333 368,435.866667 366.2,436.6 C364.333333,437.4 362.4,437.8 360.4,437.8 C357.733333,437.8 355.433333,437.233333 353.5,436.1 C351.566667,434.966667 350.1,433.3 349.1,431.1 C348.1,428.833333 347.6,426.066667 347.6,422.8 C347.6,419.666667 347.833333,416.633333 348.3,413.7 C348.833333,410.766667 349.566667,408.033333 350.5,405.5 C351.433333,402.9 352.566667,400.533333 353.9,398.4 C355.166667,396.266667 356.6,394.433333 358.2,392.9 C359.866667,391.366667 361.666667,390.2 363.6,389.4 C365.533333,388.533333 367.533333,388.1 369.6,388.1 Z M750.3,389 C754.7,389 758.166667,390.3 760.7,392.9 C763.166667,395.433333 764.4,399.4 764.4,404.8 C764.4,408.2 764.1,411.5 763.5,414.7 C762.833333,417.833333 761.866667,420.733333 760.6,423.4 C759.333333,426.133333 757.7,428.5 755.7,430.5 C753.766667,432.5 751.433333,434.066667 748.7,435.2 C746.1,436.333333 743.1,436.9 739.7,436.9 L734.4,436.9 L744.5,389 Z" id="Combined-Shape"></path>
	</g>
</svg>
