
<svg width="98px" height="438px" viewBox="0 0 98 438" version="1.1" xmlns="http://www.w3.org/2000/svg" xmlns:xlink="http://www.w3.org/1999/xlink">
    <g id="Page-1" stroke="none" stroke-width="1" fill="none" fill-rule="evenodd">
        <g id="noun-options-3889171" transform="translate(-230.578100, 0.255000)" fill="#000000" fill-rule="nonzero">
            <path d="M327.6981,389.365 C327.6981,415.943 306.1511,437.49 279.5731,437.49 C252.9951,437.49 231.4481,415.943 231.4481,389.365 C231.4481,362.787 252.9951,341.24 279.5731,341.24 C306.1511,341.24 327.6981,362.787 327.6981,389.365" id="Path"></path>
            <path d="M327.6981,218.745 C327.6981,245.323 306.1511,266.87 279.5731,266.87 C252.9951,266.87 231.4481,245.323 231.4481,218.745 C231.4481,192.167 252.9951,170.62 279.5731,170.62 C306.1511,170.62 327.6981,192.167 327.6981,218.745" id="Path"></path>
            <path d="M327.6981,48.125 C327.6981,74.703 306.1511,96.25 279.5731,96.25 C252.9951,96.25 231.4481,74.703 231.4481,48.125 C231.4481,21.547 252.9951,0 279.5731,0 C306.1511,0 327.6981,21.547 327.6981,48.125" id="Path"></path>
        </g>
    </g>
</svg>
