<svg width="350px" height="348px" viewBox="0 0 350 348" version="1.1" xmlns="http://www.w3.org/2000/svg" xmlns:xlink="http://www.w3.org/1999/xlink">
    <g id="Page-1" stroke="none" stroke-width="1" fill="none" fill-rule="evenodd">
        <g id="noun-rect-4019363" transform="translate(-104.468550, 0.004930)" fill="#000000" fill-rule="nonzero">
            <path d="M401.32855,347.59507 L156.82855,347.59507 C143.13755,347.59507 130.00455,342.15367 120.32055,332.47007 C110.63695,322.78647 105.195531,309.65407 105.195531,295.96207 L105.195531,51.6320703 C105.183832,37.9330703 110.61745,24.7920703 120.30455,15.1050703 C129.98815,5.42147027 143.12855,-0.0159297322 156.82755,3.50566154e-05 L401.93755,3.50566154e-05 C415.62855,3.50566154e-05 428.76155,5.44147027 438.44555,15.1210703 C448.12915,24.8046703 453.57055,37.9370703 453.57055,51.6330703 L453.57055,296.74307 C453.14867,310.33707 447.46505,323.23507 437.71855,332.72007 C427.97245,342.20837 414.92155,347.53607 401.32055,347.59107 L401.32855,347.59507 Z M156.82855,40.7750703 C153.93405,40.7281953 151.14495,41.8570703 149.09805,43.9039703 C147.04725,45.9508703 145.91835,48.7437703 145.963845,51.6383703 L145.963845,296.74837 C145.918375,299.64287 147.04725,302.43197 149.09805,304.47887 C151.14495,306.52577 153.93395,307.65467 156.82855,307.614175 L401.93855,307.614175 C404.82525,307.67417 407.61435,306.56477 409.66515,304.52967 C411.68855,302.46327 412.83315,299.69377 412.85655,296.80307 L412.85655,51.6330703 C412.844831,48.7502703 411.72375,45.9807703 409.72375,43.9025703 C407.68465,41.8439703 404.89175,40.7111703 401.99325,40.7676046 L156.82855,40.7750703 Z" id="Shape"></path>
        </g>
    </g>
</svg>
