<svg width="264px" height="334px" viewBox="0 0 264 334" version="1.1" xmlns="http://www.w3.org/2000/svg" xmlns:xlink="http://www.w3.org/1999/xlink">
    <g id="Page-1" stroke="none" stroke-width="1" fill="none" fill-rule="evenodd">
        <g id="noun-seven-segment-3405125" transform="translate(-145.829000, -104.250000)" fill="#000000" fill-rule="nonzero">
            <polygon id="Path" points="181.579 280 304.079 280 304.079 402.5 181.579 402.5"></polygon>
            <polygon id="Path" points="181.579 140 304.079 140 304.079 262.5 181.579 262.5"></polygon>
            <path d="M374.079,393.75 C374.079,398.582 370.161,402.5 365.329,402.5 C360.497,402.5 356.579,398.582 356.579,393.75 C356.579,388.918 360.497,385 365.329,385 C370.161,385 374.079,388.918 374.079,393.75" id="Path"></path>
            <path d="M146.579,105 L146.579,437.5 L409.079,437.5 L409.079,105 L146.579,105 Z M321.579,262.5 L304.079,262.5 L304.079,280 L321.579,280 L321.579,402.5 L304.079,402.5 L304.079,420 L181.579,420 L181.579,402.5 L164.079,402.5 L164.079,280 L181.579,280 L181.579,262.5 L164.079,262.5 L164.079,140 L181.579,140 L181.579,122.5 L304.079,122.5 L304.079,140 L321.579,140 L321.579,262.5 Z M365.329,420 C350.856,420 339.079,408.223 339.079,393.75 C339.079,379.277 350.856,367.5 365.329,367.5 C379.802,367.5 391.579,379.277 391.579,393.75 C391.579,408.223 379.802,420 365.329,420 Z" id="Shape"></path>
        </g>
    </g>
</svg>
