<svg width="236px" height="560px" viewBox="0 0 236 560" version="1.1" xmlns="http://www.w3.org/2000/svg" xmlns:xlink="http://www.w3.org/1999/xlink">
    <g id="Page-1" stroke="none" stroke-width="1" fill="none" fill-rule="evenodd">
        <g id="noun-slider-792732" transform="translate(-161.468550, 0.000000)" fill="#000000" fill-rule="nonzero">
            <path d="M381.30855,52.008 L340.78155,52.008 L340.78155,0 L218.17155,0 L218.17155,52.008 L177.64855,52.008 C169.19155,52.008 162.33955,58.8674 162.33955,67.324 L162.33955,346.254 C162.33955,354.7149 169.19895,361.559 177.64855,361.559 L218.17155,361.559 L218.17155,559.999 L340.78155,559.999 L340.78155,361.559 L381.30855,361.559 C389.76555,361.559 396.61355,354.7113 396.61355,346.254 L396.61355,67.324 C396.61355,58.867 389.75805,52.008 381.30855,52.008 Z M370.20355,266.518 L188.74355,266.518 L188.74355,241.706 L370.20355,241.706 L370.20355,266.518 Z M370.20355,219.198 L188.74355,219.198 L188.74355,194.378 L370.20355,194.378 L370.20355,219.198 Z M370.20355,171.87 L188.74355,171.87 L188.74355,147.061 L370.20355,147.061 L370.20355,171.87 Z" id="Shape"></path>
        </g>
    </g>
</svg>
