<svg width="528px" height="24px" viewBox="0 0 528 24" version="1.1" xmlns="http://www.w3.org/2000/svg" xmlns:xlink="http://www.w3.org/1999/xlink">
    <g id="Page-1" stroke="none" stroke-width="1" fill="none" fill-rule="evenodd">
        <g id="noun-line-1681059" transform="translate(-15.468550, 0.802000)" fill="#000000" fill-rule="nonzero">
            <path d="M542.66855,22.398 L486.66855,22.398 L486.66855,5.68434189e-14 L542.66855,5.68434189e-14 L542.66855,22.398 Z M475.46955,22.398 L419.46955,22.398 L419.46955,5.68434189e-14 L475.46955,5.68434189e-14 L475.46955,22.398 Z M408.27055,22.398 L352.27055,22.398 L352.27055,5.68434189e-14 L408.27055,5.68434189e-14 L408.27055,22.398 Z M341.07155,22.398 L285.07155,22.398 L285.07155,5.68434189e-14 L341.07155,5.68434189e-14 L341.07155,22.398 Z M273.86855,22.398 L217.86855,22.398 L217.86855,5.68434189e-14 L273.86855,5.68434189e-14 L273.86855,22.398 Z M206.66955,22.398 L150.66955,22.398 L150.66955,5.68434189e-14 L206.66955,5.68434189e-14 L206.66955,22.398 Z M139.47055,22.398 L83.47055,22.398 L83.47055,5.68434189e-14 L139.47055,5.68434189e-14 L139.47055,22.398 Z M72.27155,22.398 L16.27155,22.398 L16.27155,5.68434189e-14 L72.27155,5.68434189e-14 L72.27155,22.398 Z" id="Shape"></path>
        </g>
    </g>
</svg>
