<svg width="466px" height="156px" viewBox="0 0 466 156" version="1.1" xmlns="http://www.w3.org/2000/svg" xmlns:xlink="http://www.w3.org/1999/xlink">
    <g id="Page-1" stroke="none" stroke-width="1" fill="none" fill-rule="evenodd">
        <g id="noun-hole-1655849" transform="translate(-46.406720, 0.839480)" fill="#000000" fill-rule="nonzero">
            <path d="M279.40672,0 C166.78672,0 46.69672,26.75852 46.69672,77.15652 C46.69672,87.11352 51.05222,95.82452 60.38472,104.53552 L61.62692,105.77772 C63.49412,107.02382 64.73632,108.88712 66.60352,110.13322 C67.22461,110.75431 67.84962,110.75431 68.47072,111.37932 C78.42772,118.22312 91.49372,125.06732 107.66972,130.66832 C138.77872,141.24632 179.22472,149.33632 224.02972,152.44532 L226.51802,152.44532 C237.09602,153.06641 248.29502,153.69142 259.49502,154.31252 L263.22942,154.31252 L279.40942,154.31252 L295.58942,154.31252 L299.94492,154.31252 C304.30042,154.31252 308.65582,154.31252 313.01092,153.69143 C315.49922,153.69143 317.98752,153.69143 320.47572,153.07034 L325.45232,153.07034 C331.05392,152.44925 337.27232,152.44925 342.87432,151.82424 L343.49541,151.82424 C360.29641,150.57814 377.09741,148.08984 392.03041,145.60154 C392.6515,145.60154 393.27651,145.60154 393.89761,144.98045 C397.00701,144.35936 399.49921,143.73435 401.98741,143.11325 C405.09681,142.49216 408.83121,141.86715 411.94441,141.24605 C413.81161,140.62496 415.05381,140.62496 416.92101,139.99995 C420.03041,139.37886 422.52261,138.75385 425.63191,138.13275 C426.87801,138.13275 427.49911,137.51166 428.74131,137.51166 C432.47571,136.26556 436.83111,135.64446 440.56131,134.40226 C441.1824,134.40226 441.80741,133.78117 442.42851,133.78117 C449.89331,131.29287 457.36251,128.80457 464.20551,125.69137 C464.8266,125.69137 465.45161,125.07028 465.45161,125.07028 C468.56101,123.82418 471.05321,122.58198 474.16251,121.33588 C474.16251,121.33588 474.7836,121.33588 474.7836,120.71479 C477.2719,119.46869 479.7602,118.22649 482.2484,116.98039 C483.4945,116.3593 484.1156,115.73429 485.3578,115.11319 C486.6039,114.4921 487.8461,113.24599 489.0922,112.62489 C490.9594,111.37879 492.2016,110.13659 494.0688,108.89049 C495.3149,108.2694 495.936,107.02329 497.1782,106.40219 L498.4243,105.15609 C498.4243,105.15609 499.04539,104.535 499.04539,104.535 C507.75629,96.4452 512.11139,87.113 512.11139,77.156 C512.123109,26.758 392.03139,0 279.41139,0 L279.40672,0 Z M473.53672,99.55552 C472.91563,100.17661 471.66952,100.80162 471.04842,100.80162 C469.80232,101.42271 468.56012,102.04772 467.31402,102.66882 L466.69293,102.66882 C463.58353,103.91492 460.47023,105.77822 456.73593,107.02432 C456.11484,107.02432 456.11484,107.64541 455.48983,107.64541 C453.62263,108.2665 451.75543,108.89151 449.88823,110.13371 C449.26714,110.13371 449.26714,110.13371 448.64213,110.7548 C444.90773,112.0009 441.17733,113.2431 436.82213,114.4892 C435.57603,114.4892 434.95493,115.11029 433.71273,115.11029 C429.35723,116.35639 424.38073,117.59859 419.40073,118.84469 C417.53353,119.46578 415.66633,119.46578 413.79913,120.09079 C411.31083,120.71188 408.82253,121.33689 405.70933,121.95799 C402.59993,122.57908 399.48663,123.20409 396.37733,123.82519 L395.13123,123.82519 C382.68623,126.31349 369.61923,128.18069 355.31123,129.42679 L354.06513,129.42679 C344.73313,130.67289 336.02213,131.29399 326.06513,131.91509 L324.81903,131.91509 C321.70963,131.91509 318.59633,132.53618 314.86203,132.53618 C311.12773,132.53618 308.01823,133.15727 304.28403,133.15727 L296.81923,133.15727 L278.15123,133.15727 L263.83923,133.15727 L260.10483,133.15727 C255.74933,133.15727 252.01503,133.15727 247.65983,132.53618 L245.79263,132.53618 C205.34763,130.66898 167.39463,125.69238 136.90263,117.60218 C136.28154,117.60218 135.03543,116.98109 134.41433,116.98109 C131.92603,116.36 130.05883,115.73499 127.57053,115.11389 C125.70333,114.4928 123.83613,113.86779 121.96893,113.24669 C120.72283,113.24669 120.10173,112.6256 118.85953,112.6256 C116.37123,112.00451 114.50403,111.3795 112.01573,110.7584 C104.55093,108.2701 97.70373,105.1568 92.10573,102.6686 C92.10573,102.6686 91.48464,102.6686 91.48464,102.04751 C89.61744,100.80141 87.75024,100.18031 85.88304,98.93811 C84.63694,98.31702 83.39474,97.69201 82.77364,97.07091 C82.15255,97.07091 82.15255,96.44982 81.52754,96.44982 C115.75054,74.05182 193.52754,59.11782 278.14754,59.11782 C362.76854,59.11782 440.54754,74.05182 474.76754,96.44982 C475.40426,98.93422 474.783165,99.55532 473.53704,99.55532 L473.53672,99.55552 Z M490.33772,85.24652 C453.62672,59.11352 371.49772,42.31252 279.40772,42.31252 C187.31772,42.31252 105.18772,59.73452 68.47772,85.24652 C66.61052,82.13712 65.36832,79.64492 65.36832,77.15672 C65.36832,67.19972 80.92332,51.02372 123.85632,37.95772 C164.92232,25.51272 220.30132,18.66872 278.78632,18.66872 C337.27432,18.66872 392.65632,25.51252 433.71632,37.95772 C477.27132,51.02372 492.20432,66.57872 492.20432,77.15672 C493.44652,79.64502 492.20432,82.13332 490.33712,85.24652 L490.33772,85.24652 Z" id="Shape"></path>
        </g>
    </g>
</svg>
