<svg width="314px" height="314px" viewBox="0 0 314 314" version="1.1" xmlns="http://www.w3.org/2000/svg" xmlns:xlink="http://www.w3.org/1999/xlink">
 <g id="Page-1" stroke="none" stroke-width="1" fill="none" fill-rule="evenodd">
  <g id="knob" transform="translate(0.194000, 0.188000)" fill="#000000" fill-rule="nonzero">
   <path d="M156.806,313.612 C198.392,313.612 238.275,297.092 267.686,267.686 C297.097,238.28 313.612,198.397 313.612,156.806 C313.612,115.215 297.092,75.337 267.686,45.926 C238.28,16.515 198.397,-1.42108547e-14 156.806,-1.42108547e-14 C115.215,-1.42108547e-14 75.337,16.52 45.926,45.926 C16.515,75.332 0,115.215 0,156.806 C0,198.397 16.52,238.275 45.926,267.686 C75.332,297.097 115.215,313.612 156.806,313.612 Z M45.086,148.522 C48.043,108.928 71.742,73.858 107.375,56.346 C143.008,38.834 185.25,41.498 218.405,63.346 L156.803,124.948 C152.5764,129.1511 150.1936,134.8582 150.178,140.819 C150.162375,146.7799 152.5139,152.503 156.7171,156.725 C160.9241,160.9516 166.6312,163.3344 172.5921,163.35 C178.553,163.365626 184.2721,161.0141 188.4981,156.8109 L250.1001,95.2089 C253.9165,100.9472 257.1939,107.0179 259.9009,113.3539 C265.1704,125.7839 268.1314,139.0649 268.6353,152.5529 C269.7955,183.3299 258.2333,213.2249 236.6663,235.2049 C215.0963,257.1889 185.4323,269.3219 154.6393,268.7519 C123.8503,268.18159 94.6513,254.9589 73.9123,232.1899 C53.1743,209.4239 42.7283,179.1199 45.0253,148.4129 L45.086,148.522 Z" id="Shape"></path>
  </g>
 </g>
</svg>
