
<svg width="466px" height="532px" viewBox="0 0 466 532" version="1.1" xmlns="http://www.w3.org/2000/svg" xmlns:xlink="http://www.w3.org/1999/xlink">
    <g id="Page-1" stroke="none" stroke-width="1" fill="none" fill-rule="evenodd">
        <g id="noun-rotate-5335857" transform="translate(-46.468550, -0.001225)" fill="#000000" fill-rule="nonzero">
            <path d="M463.10855,250.401225 C436.10455,250.401225 414.13155,272.374225 414.13155,299.378225 C414.13155,373.632225 353.71755,434.038225 279.46155,434.038225 C205.20755,434.038225 144.80155,373.632225 144.80155,299.378225 C144.80155,225.120225 205.21155,164.708225 279.46155,164.708225 L283.92635,164.708225 C277.16465,182.114225 280.70365,202.634225 294.54735,216.767225 C294.66844,216.896135 294.79344,217.025035 294.91844,217.150035 C314.01644,236.248035 345.08644,236.244035 364.18444,217.150035 L430.96544,150.369035 C440.08654,141.251835 445.31344,128.627035 445.31344,115.732035 C445.31344,102.654035 440.21574,90.3570355 430.96544,81.1030355 L364.18844,14.3220355 C345.09444,-4.77596454 314.02044,-4.77596454 294.91144,14.3337545 C280.77044,28.4817545 277.11044,49.1967545 283.92744,66.7437545 L279.46654,66.7476605 C151.19654,66.7476605 46.84654,171.10766 46.84654,299.37766 C46.84654,427.64766 151.20654,531.99766 279.46654,531.99766 C407.73654,531.99766 512.09654,427.63766 512.09654,299.37766 C512.09654,272.37366 490.12354,250.40066 463.10854,250.40066 L463.10855,250.401225 Z" id="Path"></path>
        </g>
    </g>
</svg>
