<?xml version="1.0" encoding="UTF-8"?>
<svg width="304px" height="304px" viewBox="0 0 304 304" version="1.1" xmlns="http://www.w3.org/2000/svg" xmlns:xlink="http://www.w3.org/1999/xlink">
    <title>Untitled</title>
    <g id="Page-1" stroke="none" stroke-width="1" fill="none" fill-rule="evenodd">
        <g id="noun-midi-3557461" transform="translate(0.802000, 0.800000)" fill="#000000" fill-rule="nonzero">
            <path d="M240.798,0 C257.134,0 272.802,6.488 284.353,18.043 C295.9077,29.594 302.396,45.262 302.396,61.598 L302.396,240.798 C302.396,257.134 295.908,272.802 284.353,284.353 C272.802,295.9077 257.134,302.396 240.798,302.396 L61.598,302.396 C45.262,302.396 29.594,295.908 18.043,284.353 C6.4883,272.802 -2.84217094e-14,257.134 -2.84217094e-14,240.798 L-2.84217094e-14,61.598 C-2.84217094e-14,45.262 6.488,29.594 18.043,18.043 C29.594,6.4883 45.262,0 61.598,0 Z M89.5979,123.1999 L33.5979,123.1999 L33.5979,240.7999 C33.5979,248.2259 36.551,255.3469 41.801,260.5969 C47.051,265.8469 54.1722,268.8 61.598,268.8 L240.8018,268.8 C248.2278,268.8 255.3488,265.8469 260.5988,260.5969 C265.8488,255.3469 268.8019,248.2257 268.8019,240.7999 L268.8019,123.1999 L212.8019,123.1999 L212.8019,212.8019 L179.1999,212.8019 L179.1999,123.1999 L123.1999,123.1999 L123.1999,212.8019 L89.5979,212.8019 L89.5979,123.1999 Z" id="Shape"></path>
        </g>
    </g>
</svg>